# xmcd CD database file
#
# Track frame offsets:
#	150
#	21409
#	39946
#	59254
#
# Disc length: 1073 seconds
#
# Revision: 0
# Processed by: cddbd v1.5.1PL0 Copyright (c) Steve Scherf et al.
# Submitted via: CDex 1.51
#
DISCID=2b042f04
DTITLE=花＊花 - 童神
DYEAR=1900
DGENRE=JPop
TTITLE0=童神
TTITLE1=パラダイスひとりぼっち
TTITLE2=曼珠沙華
TTITLE3=まつり
EXTD=
EXTT0=
EXTT1=
EXTT2=
EXTT3=
PLAYORDER=
